<svg version="1.1" id="Layer_1" xmlns="http://www.w3.org/2000/svg" xmlns:xlink="http://www.w3.org/1999/xlink" x="0px" y="0px"
	 width="100%" viewBox="0 0 1188 216" enable-background="new 0 0 1188 216" xml:space="preserve">
<path fill="#FEFEFE" opacity="1.000000" stroke="none" 
	d="
M805.000000,217.000000 
	C536.714294,217.000000 268.928650,217.000000 1.071479,217.000000 
	C1.071479,145.060532 1.071479,73.120956 1.071479,1.090695 
	C397.000000,1.090695 793.000000,1.090695 1188.965576,1.090695 
	C1188.965576,73.071442 1188.965576,145.035736 1188.965576,217.000000 
	C1061.120850,217.000000 933.310425,217.000000 805.000000,217.000000 
M9.257628,125.824631 
	C9.315978,126.889122 9.374328,127.953606 9.238774,129.929398 
	C9.304581,134.621735 9.370386,139.314072 9.246929,144.885483 
	C9.533331,151.606155 9.819733,158.326843 10.008418,165.896133 
	C10.121675,167.538513 9.935371,169.270111 10.393806,170.809708 
	C15.921913,189.375092 31.737762,200.772491 50.850567,200.913315 
	C89.843338,201.200592 128.840240,201.123489 167.834366,200.952087 
	C190.684906,200.851654 210.207001,183.770142 210.056030,159.010544 
	C209.835541,122.849976 209.971893,86.687019 210.018967,50.525162 
	C210.030533,41.632980 208.000000,33.326260 202.600784,26.236790 
	C194.239334,15.257754 183.359360,8.824922 168.184616,9.008452 
	C128.046173,9.004180 87.907684,8.970823 47.769398,9.047755 
	C44.351788,9.054306 40.671013,9.110301 37.562405,10.309552 
	C19.668858,17.212601 8.853871,29.557974 9.013113,50.639194 
	C9.111130,63.615318 9.209711,76.591629 9.387681,89.566772 
	C9.417053,91.708260 9.856926,93.844109 9.996934,96.505081 
	C10.059281,96.671814 10.121628,96.838539 10.039056,97.915436 
	C10.004388,101.603569 9.969720,105.291695 9.593813,109.717476 
	C9.537701,114.824348 9.481588,119.931229 9.257628,125.824631 
M384.486328,154.879044 
	C387.509949,161.942764 392.167053,167.492599 399.758362,169.649582 
	C410.387878,172.669815 420.088776,170.666473 428.674194,162.456207 
	C428.889343,165.071548 429.041809,166.924561 429.191406,168.743240 
	C439.386749,168.743240 449.152618,168.743240 458.981445,168.743240 
	C458.981445,130.268433 458.981445,92.058746 458.981445,53.767956 
	C448.867798,54.348881 439.115448,54.909054 428.917908,55.494801 
	C428.917908,67.577530 428.917908,79.464355 428.917908,91.701324 
	C419.387024,84.220322 417.434967,83.192879 412.234955,82.801018 
	C397.877502,81.719055 387.300323,88.814255 383.232147,103.456589 
	C378.541382,120.339645 378.612610,137.365997 384.486328,154.879044 
M706.025085,70.504684 
	C706.025085,103.245232 706.025085,135.985779 706.025085,168.659119 
	C717.440674,168.659119 728.163818,168.659119 739.213562,168.659119 
	C739.213562,153.176102 739.213562,138.064362 739.213562,122.442673 
	C742.830994,122.442673 746.168213,122.808174 749.397949,122.373817 
	C758.911194,121.094444 768.582458,120.252853 777.809021,117.799782 
	C785.984924,115.626030 791.858582,109.638474 794.803345,101.410072 
	C802.636719,79.521233 791.977051,60.676163 769.243652,56.501438 
	C764.198242,55.574894 758.979858,55.321438 753.834900,55.257244 
	C739.511169,55.078537 725.184143,55.156441 710.858459,55.150955 
	C709.404785,55.150398 707.951111,55.271580 706.025085,55.357285 
	C706.025085,60.265991 706.025085,64.886497 706.025085,70.504684 
M301.855591,106.302650 
	C298.721375,117.148384 295.587158,127.994118 292.452942,138.839844 
	C290.899323,136.873489 290.403900,135.137451 289.945831,133.391602 
	C283.439178,108.592018 276.967590,83.783104 270.357849,59.011036 
	C269.974030,57.572540 268.509949,55.346584 267.497345,55.318230 
	C257.556915,55.039890 247.605637,55.150295 236.067978,55.150295 
	C246.239471,93.657867 256.186554,131.315872 266.096924,168.834900 
	C276.425720,168.834900 286.057617,168.834900 295.910034,168.834900 
	C306.891144,131.006348 317.836517,93.300896 328.919128,55.122730 
	C326.241394,55.122730 324.058685,55.379623 321.960022,55.068901 
	C317.676056,54.434624 315.988708,56.234650 314.890533,60.349926 
	C310.855438,75.471169 306.385040,90.476250 301.855591,106.302650 
M639.231750,112.374886 
	C635.116089,94.921234 626.029907,86.076073 608.421753,83.675468 
	C601.916748,82.788612 595.065002,82.893860 588.561951,83.846703 
	C571.730103,86.312935 562.248718,95.623184 558.706909,112.353462 
	C556.322632,123.615952 556.574646,134.876205 559.899048,145.959396 
	C563.556458,158.153030 571.704407,165.814026 583.947876,169.016464 
	C593.457520,171.503845 603.089417,171.566254 612.657043,169.354050 
	C625.987793,166.271713 634.683044,158.202881 638.335449,144.882660 
	C641.209229,134.401871 641.316284,123.837936 639.231750,112.374886 
M928.377014,168.976151 
	C931.524597,168.048538 934.672119,167.120926 938.217834,166.075974 
	C937.146606,163.294327 936.283752,161.053696 935.441162,158.865631 
	C927.749084,160.853928 925.832703,159.371414 925.556274,151.659210 
	C925.508606,150.327606 925.539734,148.993057 925.539612,147.659866 
	C925.538635,133.161301 925.554993,118.662712 925.533203,104.164177 
	C925.516846,93.247078 921.690002,87.819244 911.057983,85.025154 
	C897.265930,81.400612 883.341980,81.674850 869.528870,85.165833 
	C867.142944,85.768806 864.805298,86.859726 862.672424,88.112129 
	C855.732605,92.187294 852.548035,100.269791 854.787048,107.982132 
	C855.046570,108.876038 856.026245,110.009865 856.867615,110.209770 
	C860.983643,111.187782 865.166016,111.886948 869.805359,112.776848 
	C869.300964,110.845032 869.008057,109.727379 868.717407,108.609161 
	C865.486145,96.177368 871.005432,89.350197 883.692749,90.085831 
	C888.749329,90.379021 892.749756,92.254166 894.498779,97.406937 
	C896.399719,103.007095 895.403503,107.888992 890.497803,111.162109 
	C885.846497,114.265472 880.562988,116.445412 875.482910,118.875359 
	C870.095581,121.452240 864.246643,123.260582 859.263855,126.444458 
	C849.844971,132.462845 846.664368,142.955719 849.779419,154.667374 
	C852.313354,164.194092 858.992676,169.229813 870.435791,170.474197 
	C880.751038,171.595886 889.880005,169.362930 897.067078,160.914398 
	C900.594666,167.545593 906.174255,169.883316 912.625366,170.036636 
	C917.585266,170.154480 922.564331,169.464462 928.377014,168.976151 
M1039.244995,86.690781 
	C1037.171631,88.066216 1034.960083,89.273308 1033.046753,90.843674 
	C1017.630310,103.496307 1012.098450,129.925644 1020.511841,150.019623 
	C1024.440796,159.403473 1031.380615,165.398987 1040.957764,168.393890 
	C1050.519531,171.384018 1060.304077,171.822556 1070.085083,169.840210 
	C1084.634155,166.891464 1093.444946,155.851379 1092.647705,141.658493 
	C1088.986938,140.588654 1085.218628,139.487396 1081.397705,138.370758 
	C1080.994751,142.897385 1080.971802,147.074097 1080.186646,151.102234 
	C1078.848389,157.967514 1074.694092,161.577042 1068.021729,162.416077 
	C1060.996948,163.299423 1056.073730,160.772385 1052.955078,154.366638 
	C1049.226685,146.708130 1048.611572,138.520645 1048.961792,129.540222 
	C1063.795288,129.540222 1078.310913,129.540222 1094.472534,129.540222 
	C1092.211060,119.602333 1091.005127,110.304726 1087.906616,101.687706 
	C1083.927490,90.622017 1074.965576,84.666885 1063.312134,83.144684 
	C1055.260376,82.092934 1047.352539,82.686455 1039.244995,86.690781 
M505.043304,83.167923 
	C490.221527,85.952156 480.774719,95.139748 475.488312,108.751053 
	C471.148590,119.924942 470.932281,131.559937 473.519928,143.200851 
	C476.697418,157.495163 485.511505,166.728668 499.881989,169.217529 
	C507.948242,170.614548 516.544006,170.872940 524.640991,169.756683 
	C539.507080,167.707214 548.278809,156.461716 547.878296,141.670776 
	C544.184448,140.598999 540.387451,139.497314 536.452881,138.355682 
	C536.152832,142.652542 536.209900,146.658676 535.529297,150.535309 
	C534.275696,157.675095 530.036377,161.541565 523.251587,162.409424 
	C516.014709,163.335114 511.051941,160.717148 507.918091,153.965347 
	C504.413330,146.414337 503.736664,138.381424 504.098083,129.547058 
	C518.927612,129.547058 533.456299,129.547058 549.035156,129.547058 
	C547.656799,121.421043 547.009155,113.916397 545.041260,106.775620 
	C541.062622,92.339294 530.958862,84.092056 516.918823,83.013397 
	C513.282227,82.734009 509.601501,83.028236 505.043304,83.167923 
M975.359314,180.883270 
	C988.275513,149.139145 1001.191772,117.395035 1014.264160,85.267059 
	C1012.607483,85.147392 1011.479309,85.172340 1010.393677,84.969505 
	C1004.956055,83.953560 1002.234314,86.024696 1000.360962,91.466820 
	C995.973267,104.212997 990.745789,116.670425 985.833008,129.234879 
	C985.321777,130.542419 984.641296,131.783813 983.696228,133.781036 
	C982.915283,131.561859 982.422852,130.192749 981.950745,128.816666 
	C977.356262,115.425705 972.818298,102.014740 968.095093,88.669365 
	C967.591736,87.247124 966.037903,85.178383 964.925232,85.148872 
	C954.675232,84.877029 944.415039,84.988617 933.694092,84.988617 
	C934.375122,87.004288 934.795959,88.409210 935.319214,89.774895 
	C944.972534,114.969719 954.303223,140.296707 964.508240,165.266296 
	C967.509033,172.608521 966.138306,178.354630 962.583557,184.404449 
	C960.662598,187.673676 958.190979,190.497055 953.917297,190.083145 
	C949.555481,189.660675 948.607666,186.117462 947.713928,182.640762 
	C947.601318,182.202896 947.264343,181.822693 946.816162,181.039932 
	C943.413330,183.537262 940.152466,185.930389 936.961670,188.272141 
	C943.232300,200.688797 958.002869,203.272598 967.166443,193.590759 
	C970.409973,190.163742 972.466492,185.613342 975.359314,180.883270 
M806.272705,137.499863 
	C806.272705,147.926208 806.272705,158.352554 806.272705,168.628723 
	C816.865112,168.628723 826.761536,168.628723 836.630127,168.628723 
	C836.630127,130.180618 836.630127,92.117851 836.630127,53.784908 
	C826.463257,54.348824 816.582520,54.896862 806.272705,55.468700 
	C806.272705,82.623672 806.272705,109.561760 806.272705,137.499863 
M1155.456543,82.903214 
	C1146.733154,82.439323 1142.044067,88.583939 1136.612305,95.593369 
	C1136.612305,90.550415 1136.612305,86.935226 1136.612305,83.297813 
	C1126.344238,84.056709 1116.473755,84.786217 1106.364990,85.533333 
	C1106.364990,113.173996 1106.364990,140.863403 1106.364990,168.741272 
	C1116.507568,168.741272 1126.385376,168.741272 1136.702271,168.741272 
	C1136.702271,166.826614 1136.703979,165.198990 1136.702148,163.571365 
	C1136.685669,148.925415 1136.220215,134.260056 1136.853760,119.642281 
	C1137.141357,113.007080 1139.399780,106.406906 1141.258423,99.932663 
	C1141.630981,98.634575 1144.240967,97.978783 1145.819458,97.026878 
	C1146.756104,98.633621 1148.276245,100.170509 1148.479248,101.865097 
	C1148.723755,103.907639 1147.921753,106.100578 1147.440918,108.198204 
	C1146.904663,110.537956 1146.220337,112.843750 1145.486572,115.590561 
	C1152.109497,115.590561 1157.924927,115.735077 1163.721069,115.467125 
	C1164.863281,115.414322 1166.698853,113.917053 1166.904053,112.836952 
	C1167.891357,107.639839 1168.916504,102.366829 1169.018311,97.103180 
	C1169.187866,88.313789 1165.152100,84.172241 1155.456543,82.903214 
M361.790436,83.424736 
	C353.389099,84.097427 344.987793,84.770126 336.672363,85.435944 
	C336.672363,113.385399 336.672363,141.091278 336.672363,168.623550 
	C346.983032,168.623550 356.888336,168.623550 366.758148,168.623550 
	C366.758148,139.953888 366.758148,111.674751 366.758148,83.470802 
	C366.251038,83.263924 365.959320,83.039307 365.674561,83.047836 
	C364.679596,83.077614 363.687042,83.187920 361.790436,83.424736 
M363.459381,56.144905 
	C358.051453,51.549122 351.774017,51.784714 345.470276,53.246307 
	C340.026367,54.508549 337.582458,58.224178 337.776855,63.939640 
	C337.958344,69.275299 340.607880,72.680077 345.968384,73.741730 
	C348.708740,74.284470 351.609070,74.379272 354.407623,74.204559 
	C364.764099,73.557983 368.801941,66.067390 363.459381,56.144905 
z"/>
<path fill="#030303" opacity="1.000000" stroke="none" 
	d="
M384.328796,154.526764 
	C378.612610,137.365997 378.541382,120.339645 383.232147,103.456589 
	C387.300323,88.814255 397.877502,81.719055 412.234955,82.801018 
	C417.434967,83.192879 419.387024,84.220322 428.917908,91.701324 
	C428.917908,79.464355 428.917908,67.577530 428.917908,55.494801 
	C439.115448,54.909054 448.867798,54.348881 458.981445,53.767956 
	C458.981445,92.058746 458.981445,130.268433 458.981445,168.743240 
	C449.152618,168.743240 439.386749,168.743240 429.191406,168.743240 
	C429.041809,166.924561 428.889343,165.071548 428.674194,162.456207 
	C420.088776,170.666473 410.387878,172.669815 399.758362,169.649582 
	C392.167053,167.492599 387.509949,161.942764 384.328796,154.526764 
M429.170563,116.296501 
	C428.879761,112.659325 428.838898,108.980820 428.245575,105.393684 
	C427.051758,98.176193 424.021271,94.710121 419.614746,94.967491 
	C415.332550,95.217583 412.596710,98.697708 412.414581,105.899666 
	C412.066132,119.679207 411.995117,133.476654 412.279053,147.256989 
	C412.434479,154.799332 415.905792,158.730820 420.903412,158.566910 
	C425.569977,158.413879 428.617126,154.440063 428.869965,147.116745 
	C429.213684,137.159409 429.121490,127.187035 429.170563,116.296501 
z"/>
<path fill="#040404" opacity="1.000000" stroke="none" 
	d="
M706.025085,70.005844 
	C706.025085,64.886497 706.025085,60.265991 706.025085,55.357285 
	C707.951111,55.271580 709.404785,55.150398 710.858459,55.150955 
	C725.184143,55.156441 739.511169,55.078537 753.834900,55.257244 
	C758.979858,55.321438 764.198242,55.574894 769.243652,56.501438 
	C791.977051,60.676163 802.636719,79.521233 794.803345,101.410072 
	C791.858582,109.638474 785.984924,115.626030 777.809021,117.799782 
	C768.582458,120.252853 758.911194,121.094444 749.397949,122.373817 
	C746.168213,122.808174 742.830994,122.442673 739.213562,122.442673 
	C739.213562,138.064362 739.213562,153.176102 739.213562,168.659119 
	C728.163818,168.659119 717.440674,168.659119 706.025085,168.659119 
	C706.025085,135.985779 706.025085,103.245232 706.025085,70.005844 
M763.416870,78.546494 
	C759.621643,67.536171 751.669250,63.563568 739.449768,66.515343 
	C739.449768,81.581078 739.449768,96.624588 739.449768,111.937508 
	C741.652405,111.937508 743.473022,111.959473 745.292908,111.933914 
	C756.361206,111.778488 762.423096,106.806915 763.769043,95.764275 
	C764.424805,90.384590 763.722290,84.839340 763.416870,78.546494 
z"/>
<path fill="#050505" opacity="1.000000" stroke="none" 
	d="
M301.967010,105.913849 
	C306.385040,90.476250 310.855438,75.471169 314.890533,60.349926 
	C315.988708,56.234650 317.676056,54.434624 321.960022,55.068901 
	C324.058685,55.379623 326.241394,55.122730 328.919128,55.122730 
	C317.836517,93.300896 306.891144,131.006348 295.910034,168.834900 
	C286.057617,168.834900 276.425720,168.834900 266.096924,168.834900 
	C256.186554,131.315872 246.239471,93.657867 236.067978,55.150295 
	C247.605637,55.150295 257.556915,55.039890 267.497345,55.318230 
	C268.509949,55.346584 269.974030,57.572540 270.357849,59.011036 
	C276.967590,83.783104 283.439178,108.592018 289.945831,133.391602 
	C290.403900,135.137451 290.899323,136.873489 292.452942,138.839844 
	C295.587158,127.994118 298.721375,117.148384 301.967010,105.913849 
z"/>
<path fill="#050505" opacity="1.000000" stroke="none" 
	d="
M639.321777,112.787598 
	C641.316284,123.837936 641.209229,134.401871 638.335449,144.882660 
	C634.683044,158.202881 625.987793,166.271713 612.657043,169.354050 
	C603.089417,171.566254 593.457520,171.503845 583.947876,169.016464 
	C571.704407,165.814026 563.556458,158.153030 559.899048,145.959396 
	C556.574646,134.876205 556.322632,123.615952 558.706909,112.353462 
	C562.248718,95.623184 571.730103,86.312935 588.561951,83.846703 
	C595.065002,82.893860 601.916748,82.788612 608.421753,83.675468 
	C626.029907,86.076073 635.116089,94.921234 639.321777,112.787598 
M607.082825,101.585762 
	C606.260132,99.236618 605.876099,96.574516 604.488037,94.628723 
	C603.171631,92.783463 600.799255,90.571190 598.898865,90.578201 
	C597.000427,90.585197 594.332458,92.759399 593.390137,94.668716 
	C591.729370,98.033607 590.314819,101.899025 590.221008,105.591057 
	C589.862305,119.707184 589.811462,133.845459 590.232666,147.957947 
	C590.351807,151.949417 591.961243,156.137192 593.795410,159.777344 
	C596.230835,164.610809 601.303772,164.650024 603.976685,159.984131 
	C605.594055,157.160751 606.760803,153.875275 607.278503,150.660278 
	C609.865967,134.593918 609.815369,118.488121 607.082825,101.585762 
z"/>
<path fill="#060606" opacity="1.000000" stroke="none" 
	d="
M927.955933,169.054932 
	C922.564331,169.464462 917.585266,170.154480 912.625366,170.036636 
	C906.174255,169.883316 900.594666,167.545593 897.067078,160.914398 
	C889.880005,169.362930 880.751038,171.595886 870.435791,170.474197 
	C858.992676,169.229813 852.313354,164.194092 849.779419,154.667374 
	C846.664368,142.955719 849.844971,132.462845 859.263855,126.444458 
	C864.246643,123.260582 870.095581,121.452240 875.482910,118.875359 
	C880.562988,116.445412 885.846497,114.265472 890.497803,111.162109 
	C895.403503,107.888992 896.399719,103.007095 894.498779,97.406937 
	C892.749756,92.254166 888.749329,90.379021 883.692749,90.085831 
	C871.005432,89.350197 865.486145,96.177368 868.717407,108.609161 
	C869.008057,109.727379 869.300964,110.845032 869.805359,112.776848 
	C865.166016,111.886948 860.983643,111.187782 856.867615,110.209770 
	C856.026245,110.009865 855.046570,108.876038 854.787048,107.982132 
	C852.548035,100.269791 855.732605,92.187294 862.672424,88.112129 
	C864.805298,86.859726 867.142944,85.768806 869.528870,85.165833 
	C883.341980,81.674850 897.265930,81.400612 911.057983,85.025154 
	C921.690002,87.819244 925.516846,93.247078 925.533203,104.164177 
	C925.554993,118.662712 925.538635,133.161301 925.539612,147.659866 
	C925.539734,148.993057 925.508606,150.327606 925.556274,151.659210 
	C925.832703,159.371414 927.749084,160.853928 935.441162,158.865631 
	C936.283752,161.053696 937.146606,163.294327 938.217834,166.075974 
	C934.672119,167.120926 931.524597,168.048538 927.955933,169.054932 
M879.199402,147.102585 
	C879.661987,149.545074 879.848145,152.082031 880.643799,154.410751 
	C882.403748,159.562012 887.394104,160.693573 891.147827,156.759125 
	C892.458374,155.385498 893.767029,153.395279 893.890320,151.604950 
	C894.621460,140.989014 895.004150,130.349060 895.548401,118.771797 
	C879.874573,130.701508 878.902893,132.395584 879.199402,147.102585 
z"/>
<path fill="#060606" opacity="1.000000" stroke="none" 
	d="
M1039.571533,86.506516 
	C1047.352539,82.686455 1055.260376,82.092934 1063.312134,83.144684 
	C1074.965576,84.666885 1083.927490,90.622017 1087.906616,101.687706 
	C1091.005127,110.304726 1092.211060,119.602333 1094.472534,129.540222 
	C1078.310913,129.540222 1063.795288,129.540222 1048.961792,129.540222 
	C1048.611572,138.520645 1049.226685,146.708130 1052.955078,154.366638 
	C1056.073730,160.772385 1060.996948,163.299423 1068.021729,162.416077 
	C1074.694092,161.577042 1078.848389,157.967514 1080.186646,151.102234 
	C1080.971802,147.074097 1080.994751,142.897385 1081.397705,138.370758 
	C1085.218628,139.487396 1088.986938,140.588654 1092.647705,141.658493 
	C1093.444946,155.851379 1084.634155,166.891464 1070.085083,169.840210 
	C1060.304077,171.822556 1050.519531,171.384018 1040.957764,168.393890 
	C1031.380615,165.398987 1024.440796,159.403473 1020.511841,150.019623 
	C1012.098450,129.925644 1017.630310,103.496307 1033.046753,90.843674 
	C1034.960083,89.273308 1037.171631,88.066216 1039.571533,86.506516 
M1062.636230,93.948082 
	C1058.213257,89.586281 1053.812012,89.997017 1052.148804,95.871216 
	C1049.976929,103.542465 1049.199829,111.608620 1047.764038,119.841194 
	C1054.888916,119.841194 1060.704346,119.841194 1067.995850,119.841194 
	C1066.252441,110.989738 1064.639404,102.799927 1062.636230,93.948082 
z"/>
<path fill="#060606" opacity="1.000000" stroke="none" 
	d="
M505.492188,83.113449 
	C509.601501,83.028236 513.282227,82.734009 516.918823,83.013397 
	C530.958862,84.092056 541.062622,92.339294 545.041260,106.775620 
	C547.009155,113.916397 547.656799,121.421043 549.035156,129.547058 
	C533.456299,129.547058 518.927612,129.547058 504.098083,129.547058 
	C503.736664,138.381424 504.413330,146.414337 507.918091,153.965347 
	C511.051941,160.717148 516.014709,163.335114 523.251587,162.409424 
	C530.036377,161.541565 534.275696,157.675095 535.529297,150.535309 
	C536.209900,146.658676 536.152832,142.652542 536.452881,138.355682 
	C540.387451,139.497314 544.184448,140.598999 547.878296,141.670776 
	C548.278809,156.461716 539.507080,167.707214 524.640991,169.756683 
	C516.544006,170.872940 507.948242,170.614548 499.881989,169.217529 
	C485.511505,166.728668 476.697418,157.495163 473.519928,143.200851 
	C470.932281,131.559937 471.148590,119.924942 475.488312,108.751053 
	C480.774719,95.139748 490.221527,85.952156 505.492188,83.113449 
M518.112183,94.499474 
	C513.968018,89.553978 509.753052,89.896690 507.224945,95.706444 
	C503.852631,103.456238 504.035950,111.723511 503.888336,119.899033 
	C510.154266,119.899033 515.857605,119.899033 523.047058,119.899033 
	C521.451843,111.254318 519.968445,103.215179 518.112183,94.499474 
z"/>
<path fill="#060606" opacity="1.000000" stroke="none" 
	d="
M975.212158,181.229523 
	C972.466492,185.613342 970.409973,190.163742 967.166443,193.590759 
	C958.002869,203.272598 943.232300,200.688797 936.961670,188.272141 
	C940.152466,185.930389 943.413330,183.537262 946.816162,181.039932 
	C947.264343,181.822693 947.601318,182.202896 947.713928,182.640762 
	C948.607666,186.117462 949.555481,189.660675 953.917297,190.083145 
	C958.190979,190.497055 960.662598,187.673676 962.583557,184.404449 
	C966.138306,178.354630 967.509033,172.608521 964.508240,165.266296 
	C954.303223,140.296707 944.972534,114.969719 935.319214,89.774895 
	C934.795959,88.409210 934.375122,87.004288 933.694092,84.988617 
	C944.415039,84.988617 954.675232,84.877029 964.925232,85.148872 
	C966.037903,85.178383 967.591736,87.247124 968.095093,88.669365 
	C972.818298,102.014740 977.356262,115.425705 981.950745,128.816666 
	C982.422852,130.192749 982.915283,131.561859 983.696228,133.781036 
	C984.641296,131.783813 985.321777,130.542419 985.833008,129.234879 
	C990.745789,116.670425 995.973267,104.212997 1000.360962,91.466820 
	C1002.234314,86.024696 1004.956055,83.953560 1010.393677,84.969505 
	C1011.479309,85.172340 1012.607483,85.147392 1014.264160,85.267059 
	C1001.191772,117.395035 988.275513,149.139145 975.212158,181.229523 
z"/>
<path fill="#060606" opacity="1.000000" stroke="none" 
	d="
M806.272705,136.999847 
	C806.272705,109.561760 806.272705,82.623672 806.272705,55.468700 
	C816.582520,54.896862 826.463257,54.348824 836.630127,53.784908 
	C836.630127,92.117851 836.630127,130.180618 836.630127,168.628723 
	C826.761536,168.628723 816.865112,168.628723 806.272705,168.628723 
	C806.272705,158.352554 806.272705,147.926208 806.272705,136.999847 
z"/>
<path fill="#060606" opacity="1.000000" stroke="none" 
	d="
M1155.886719,82.928909 
	C1165.152100,84.172241 1169.187866,88.313789 1169.018311,97.103180 
	C1168.916504,102.366829 1167.891357,107.639839 1166.904053,112.836952 
	C1166.698853,113.917053 1164.863281,115.414322 1163.721069,115.467125 
	C1157.924927,115.735077 1152.109497,115.590561 1145.486572,115.590561 
	C1146.220337,112.843750 1146.904663,110.537956 1147.440918,108.198204 
	C1147.921753,106.100578 1148.723755,103.907639 1148.479248,101.865097 
	C1148.276245,100.170509 1146.756104,98.633621 1145.819458,97.026871 
	C1144.240967,97.978783 1141.630981,98.634575 1141.258423,99.932663 
	C1139.399780,106.406906 1137.141357,113.007080 1136.853760,119.642281 
	C1136.220215,134.260056 1136.685669,148.925415 1136.702148,163.571365 
	C1136.703979,165.198990 1136.702271,166.826614 1136.702271,168.741272 
	C1126.385376,168.741272 1116.507568,168.741272 1106.364990,168.741272 
	C1106.364990,140.863403 1106.364990,113.173996 1106.364990,85.533333 
	C1116.473755,84.786217 1126.344238,84.056709 1136.612305,83.297813 
	C1136.612305,86.935226 1136.612305,90.550415 1136.612305,95.593369 
	C1142.044067,88.583939 1146.733154,82.439323 1155.886719,82.928909 
z"/>
<path fill="#535353" opacity="1.000000" stroke="none" 
	d="
M10.107088,95.982567 
	C9.856926,93.844109 9.417053,91.708260 9.387681,89.566772 
	C9.209711,76.591629 9.111130,63.615318 9.013113,50.639194 
	C8.853871,29.557974 19.668858,17.212601 37.562405,10.309552 
	C40.671013,9.110301 44.351788,9.054306 47.769398,9.047755 
	C87.907684,8.970823 128.046173,9.004180 168.924744,9.337757 
	C173.520615,11.074781 177.376343,12.482500 180.923096,14.031577 
	C180.081985,15.078298 179.549881,15.983662 178.649338,16.870556 
	C171.942459,13.291306 165.089783,12.445879 157.504211,13.005059 
	C149.388931,13.009727 141.740402,13.015083 133.617355,13.010450 
	C125.400200,13.006389 117.657570,13.012318 109.451721,13.008488 
	C101.347862,13.003959 93.707222,13.009190 85.601562,13.014246 
	C81.420959,13.034245 77.705368,13.054419 73.528496,13.050943 
	C69.339439,13.026657 65.611671,13.026019 61.423264,13.022081 
	C51.784981,12.710324 42.643009,12.640117 33.787930,17.003107 
	C32.484177,17.275288 31.464025,17.412209 30.652822,17.898027 
	C11.815121,29.179661 8.990919,45.974724 11.791676,67.108154 
	C21.143391,67.108154 30.580122,67.108154 40.055382,67.450806 
	C41.459396,68.891579 42.675663,70.298561 44.212872,71.041252 
	C65.673096,81.409607 88.145569,85.546181 112.024994,83.195396 
	C126.514343,81.769012 140.347092,78.536743 153.529587,72.562950 
	C155.997955,71.444374 157.848022,68.961334 160.451874,67.072388 
	C169.608002,67.058441 178.295700,67.080055 186.948563,67.439682 
	C186.356750,68.579697 185.962250,69.600807 185.219162,70.151810 
	C164.172272,85.758026 140.459641,94.043304 114.410522,96.091293 
	C111.226746,96.341606 108.140785,97.835960 104.671349,98.699867 
	C96.122086,94.077888 87.910965,89.509827 78.834869,84.460556 
	C78.834869,90.513260 78.834869,95.760170 78.404060,101.004517 
	C59.898682,99.427254 43.025909,93.844940 26.995935,85.558975 
	C21.835775,82.891670 16.836746,79.912628 11.008372,76.653687 
	C11.008372,79.639847 11.095547,81.457016 10.990894,83.263069 
	C10.745053,87.505730 10.407516,91.743073 10.107088,95.982567 
z"/>
<path fill="#010101" opacity="1.000000" stroke="none" 
	d="
M181.232086,13.890219 
	C177.376343,12.482500 173.520615,11.074781 169.393021,9.430123 
	C183.359360,8.824922 194.239334,15.257754 202.600784,26.236790 
	C208.000000,33.326260 210.030533,41.632980 210.018967,50.525162 
	C209.971893,86.687019 209.835541,122.849976 210.056030,159.010544 
	C210.207001,183.770142 190.684906,200.851654 167.834366,200.952087 
	C128.840240,201.123489 89.843338,201.200592 50.850567,200.913315 
	C31.737762,200.772491 15.921913,189.375092 10.393806,170.809708 
	C9.935371,169.270111 10.121675,167.538513 10.302657,165.604156 
	C11.030220,165.898575 11.463544,166.484985 11.925950,167.440842 
	C12.952175,169.882690 13.949318,171.955063 14.996482,174.376038 
	C18.358265,178.163010 21.670027,181.601410 25.142344,185.344543 
	C31.952593,190.447006 39.475483,192.878662 47.576633,192.941956 
	C68.041412,193.101822 88.508400,192.977936 109.445740,192.979050 
	C128.314377,192.992386 146.722366,193.367325 165.104843,192.844574 
	C174.799835,192.568878 183.842499,189.460678 190.363770,180.993683 
	C193.442505,176.939758 196.175476,172.935150 198.980453,168.556503 
	C199.707565,165.669205 200.768219,163.181885 200.930817,160.637177 
	C201.240631,155.788742 201.037750,150.907562 201.352539,145.748444 
	C201.719955,138.294846 201.782608,131.132767 201.890656,123.505997 
	C201.915436,113.691505 201.894836,104.341705 201.925476,94.526184 
	C201.942947,85.049072 201.909195,76.037674 201.906158,66.556992 
	C201.624130,57.176144 202.179688,48.125965 200.784698,39.387161 
	C198.928604,27.759932 192.041260,19.101616 181.232086,13.890219 
z"/>
<path fill="#060606" opacity="1.000000" stroke="none" 
	d="
M362.242004,83.346176 
	C363.687042,83.187920 364.679596,83.077614 365.674561,83.047836 
	C365.959320,83.039307 366.251038,83.263924 366.758148,83.470802 
	C366.758148,111.674751 366.758148,139.953888 366.758148,168.623550 
	C356.888336,168.623550 346.983032,168.623550 336.672363,168.623550 
	C336.672363,141.091278 336.672363,113.385399 336.672363,85.435944 
	C344.987793,84.770126 353.389099,84.097427 362.242004,83.346176 
z"/>
<path fill="#4C4C4C" opacity="1.000000" stroke="none" 
	d="
M10.052011,96.243820 
	C10.407516,91.743073 10.745053,87.505730 10.990894,83.263069 
	C11.095547,81.457016 11.008372,79.639847 11.008372,76.653687 
	C16.836746,79.912628 21.835775,82.891670 26.995935,85.558975 
	C43.025909,93.844940 59.898682,99.427254 78.472527,101.465851 
	C78.925308,106.621529 78.878815,111.313332 78.399384,116.003464 
	C76.637131,115.987762 75.282166,116.137993 73.982353,115.935020 
	C54.614323,112.910583 35.716698,108.355690 18.175295,99.171074 
	C15.787996,97.921097 12.861053,97.701782 10.183973,97.005257 
	C10.121628,96.838539 10.059281,96.671814 10.052011,96.243820 
z"/>
<path fill="#474747" opacity="1.000000" stroke="none" 
	d="
M10.111515,97.460342 
	C12.861053,97.701782 15.787996,97.921097 18.175295,99.171074 
	C35.716698,108.355690 54.614323,112.910583 73.982353,115.935020 
	C75.282166,116.137993 76.637131,115.987762 78.469704,116.463242 
	C78.925957,121.284630 78.878952,125.644577 78.398354,130.003082 
	C69.489044,128.773743 60.795170,128.353897 52.586235,126.137764 
	C38.566853,122.353027 24.851570,117.441826 11.004485,112.632568 
	C10.645293,111.167519 10.290174,110.073677 9.935053,108.979828 
	C9.969720,105.291695 10.004388,101.603569 10.111515,97.460342 
z"/>
<path fill="#3D3D3D" opacity="1.000000" stroke="none" 
	d="
M9.436192,144.006409 
	C9.370386,139.314072 9.304581,134.621735 9.724760,129.471588 
	C13.749942,129.825851 17.435791,130.247940 20.804008,131.514633 
	C39.540894,138.561111 59.077679,141.760834 78.903854,144.462921 
	C78.927185,148.949570 78.879219,152.977921 78.379196,157.004379 
	C64.534004,155.135468 51.064770,153.685654 37.773300,151.261276 
	C28.204845,149.515961 18.873371,146.471420 9.436192,144.006409 
z"/>
<path fill="#424242" opacity="1.000000" stroke="none" 
	d="
M78.832558,144.004639 
	C59.077679,141.760834 39.540894,138.561111 20.804008,131.514633 
	C17.435791,130.247940 13.749942,129.825851 9.821712,129.015945 
	C9.374328,127.953606 9.315978,126.889122 9.697922,125.294464 
	C10.428329,120.844124 10.718442,116.923943 11.008556,113.003769 
	C24.851570,117.441826 38.566853,122.353027 52.586235,126.137764 
	C60.795170,128.353897 69.489044,128.773743 78.469467,130.462799 
	C78.926971,135.284180 78.879768,139.644409 78.832558,144.004639 
z"/>
<path fill="#363636" opacity="1.000000" stroke="none" 
	d="
M9.341560,144.445953 
	C18.873371,146.471420 28.204845,149.515961 37.773300,151.261276 
	C51.064770,153.685654 64.534004,155.135468 78.450058,157.427597 
	C79.893257,159.769241 77.036354,162.924652 80.957840,164.228485 
	C81.649101,166.062256 82.326317,167.528946 82.711655,169.291183 
	C78.949402,169.711578 75.364365,170.465149 72.027702,169.856674 
	C53.854565,166.542740 35.747467,162.867844 17.601490,159.401749 
	C15.931672,159.082794 14.148115,159.359283 13.134045,159.359283 
	C12.664361,162.287109 12.280614,164.679245 11.896868,167.071381 
	C11.463544,166.484985 11.030220,165.898575 10.351515,165.179840 
	C9.819733,158.326843 9.533331,151.606155 9.341560,144.445953 
z"/>
<path fill="#060606" opacity="1.000000" stroke="none" 
	d="
M363.713684,56.431717 
	C368.801941,66.067390 364.764099,73.557983 354.407623,74.204559 
	C351.609070,74.379272 348.708740,74.284470 345.968384,73.741730 
	C340.607880,72.680077 337.958344,69.275299 337.776855,63.939640 
	C337.582458,58.224178 340.026367,54.508549 345.470276,53.246307 
	C351.774017,51.784714 358.051453,51.549122 363.713684,56.431717 
z"/>
<path fill="#535353" opacity="1.000000" stroke="none" 
	d="
M11.004484,112.632568 
	C10.718442,116.923943 10.428329,120.844124 9.781845,124.901199 
	C9.481588,119.931229 9.537701,114.824348 9.764433,109.348648 
	C10.290174,110.073677 10.645293,111.167519 11.004484,112.632568 
z"/>
<path fill="#F9F9F9" opacity="1.000000" stroke="none" 
	d="
M429.193390,116.758804 
	C429.121490,127.187035 429.213684,137.159409 428.869965,147.116745 
	C428.617126,154.440063 425.569977,158.413879 420.903412,158.566910 
	C415.905792,158.730820 412.434479,154.799332 412.279053,147.256989 
	C411.995117,133.476654 412.066132,119.679207 412.414581,105.899666 
	C412.596710,98.697708 415.332550,95.217583 419.614746,94.967491 
	C424.021271,94.710121 427.051758,98.176193 428.245575,105.393684 
	C428.838898,108.980820 428.879761,112.659325 429.193390,116.758804 
z"/>
<path fill="#F9F9F9" opacity="1.000000" stroke="none" 
	d="
M763.525696,78.957764 
	C763.722290,84.839340 764.424805,90.384590 763.769043,95.764275 
	C762.423096,106.806915 756.361206,111.778488 745.292908,111.933914 
	C743.473022,111.959473 741.652405,111.937508 739.449768,111.937508 
	C739.449768,96.624588 739.449768,81.581078 739.449768,66.515343 
	C751.669250,63.563568 759.621643,67.536171 763.525696,78.957764 
z"/>
<path fill="#F9F9F9" opacity="1.000000" stroke="none" 
	d="
M607.161560,101.995331 
	C609.815369,118.488121 609.865967,134.593918 607.278503,150.660278 
	C606.760803,153.875275 605.594055,157.160751 603.976685,159.984131 
	C601.303772,164.650024 596.230835,164.610809 593.795410,159.777344 
	C591.961243,156.137192 590.351807,151.949417 590.232666,147.957947 
	C589.811462,133.845459 589.862305,119.707184 590.221008,105.591057 
	C590.314819,101.899025 591.729370,98.033607 593.390137,94.668716 
	C594.332458,92.759399 597.000427,90.585197 598.898865,90.578201 
	C600.799255,90.571190 603.171631,92.783463 604.488037,94.628723 
	C605.876099,96.574516 606.260132,99.236618 607.161560,101.995331 
z"/>
<path fill="#F7F7F7" opacity="1.000000" stroke="none" 
	d="
M879.166992,146.655457 
	C878.902893,132.395584 879.874573,130.701508 895.548401,118.771797 
	C895.004150,130.349060 894.621460,140.989014 893.890320,151.604950 
	C893.767029,153.395279 892.458374,155.385498 891.147827,156.759125 
	C887.394104,160.693573 882.403748,159.562012 880.643799,154.410751 
	C879.848145,152.082031 879.661987,149.545074 879.166992,146.655457 
z"/>
<path fill="#F7F7F7" opacity="1.000000" stroke="none" 
	d="
M1062.831299,94.279099 
	C1064.639404,102.799927 1066.252441,110.989738 1067.995850,119.841194 
	C1060.704346,119.841194 1054.888916,119.841194 1047.764038,119.841194 
	C1049.199829,111.608620 1049.976929,103.542465 1052.148804,95.871216 
	C1053.812012,89.997017 1058.213257,89.586281 1062.831299,94.279099 
z"/>
<path fill="#F7F7F7" opacity="1.000000" stroke="none" 
	d="
M518.298584,94.837753 
	C519.968445,103.215179 521.451843,111.254318 523.047058,119.899033 
	C515.857605,119.899033 510.154266,119.899033 503.888336,119.899033 
	C504.035950,111.723511 503.852631,103.456238 507.224945,95.706444 
	C509.753052,89.896690 513.968018,89.553978 518.298584,94.837753 
z"/>
<path fill="#252525" opacity="1.000000" stroke="none" 
	d="
M61.883911,13.025381 
	C65.611671,13.026019 69.339439,13.026657 73.532181,13.464811 
	C75.081161,16.966311 76.165161,20.030294 77.152184,23.430031 
	C74.037880,27.308691 71.020546,30.851597 67.340416,35.172756 
	C75.412857,35.172756 82.485336,35.225361 89.555222,35.113846 
	C90.570435,35.097836 91.573166,34.290295 93.072128,33.891388 
	C98.985680,33.580605 104.440933,33.476154 109.819771,32.780731 
	C113.023537,32.366520 116.107239,31.023695 119.144211,30.444584 
	C118.125359,32.070881 117.207222,33.350937 115.905746,35.165424 
	C123.583313,35.165424 130.679459,35.187733 137.775024,35.132992 
	C138.534927,35.127129 139.567429,34.907303 140.007812,34.390171 
	C146.043457,27.302832 151.997147,20.145712 157.970978,13.005751 
	C165.089783,12.445879 171.942459,13.291306 178.632874,17.186394 
	C178.938904,17.725878 178.892944,17.931051 178.523422,18.229050 
	C173.516388,23.759651 168.832932,29.197426 163.694794,35.163109 
	C170.158554,35.163109 175.675629,34.847164 181.137939,35.258465 
	C185.903503,35.617298 189.501312,34.431137 192.207596,30.120699 
	C194.712753,34.341427 198.039856,38.410553 198.749344,42.893921 
	C199.996658,50.775883 199.642914,58.911213 199.499512,66.964233 
	C195.020706,67.025909 191.002045,67.063789 186.983398,67.101669 
	C178.295700,67.080055 169.608002,67.058441 159.985962,67.037880 
	C119.373352,67.062012 79.695107,67.085075 40.016853,67.108154 
	C30.580122,67.108154 21.143391,67.108154 11.791676,67.108154 
	C8.990919,45.974724 11.815121,29.179661 30.652822,17.898027 
	C31.464025,17.412209 32.484177,17.275288 33.704082,17.349640 
	C29.297438,23.314737 24.593704,28.906031 19.326471,35.167152 
	C27.243319,35.167152 33.893204,35.221085 40.540638,35.117626 
	C41.742409,35.098919 43.363907,34.809357 44.063042,34.008663 
	C50.098080,27.096968 55.966099,20.039438 61.883911,13.025381 
M21.344017,40.002590 
	C21.047934,40.659389 20.319265,41.683601 20.519258,41.919071 
	C25.092167,47.303185 29.750196,52.615578 34.432533,57.905785 
	C35.684341,59.320103 37.011715,61.714233 38.400887,61.785812 
	C45.894806,62.171921 53.419094,61.968620 61.930759,61.968620 
	C57.797443,57.217884 53.975849,53.728443 51.270214,49.521324 
	C46.168724,41.588779 39.431648,38.372620 30.153225,39.935505 
	C27.567263,40.371094 24.845762,40.002007 21.344017,40.002590 
M91.525032,40.242180 
	C83.699303,40.242180 75.873573,40.242180 67.193100,40.242180 
	C73.552422,47.616085 79.261589,54.260643 85.018082,60.863953 
	C85.473152,61.385960 86.253738,61.935921 86.888298,61.942196 
	C94.416725,62.016644 101.946144,61.990143 110.043312,61.990143 
	C103.642372,54.563423 97.781487,47.763313 91.525032,40.242180 
M121.766510,39.994881 
	C119.893410,39.994881 118.020309,39.994881 115.092224,39.994881 
	C121.640472,47.506630 127.340141,54.068142 133.082352,60.592201 
	C133.594193,61.173729 134.377625,61.896214 135.042969,61.904457 
	C142.540512,61.997375 150.039627,61.963284 158.160965,61.963284 
	C154.330963,57.474201 151.009293,53.856903 148.001999,49.994808 
	C142.813599,43.331657 137.346252,37.556797 127.675888,39.940739 
	C126.108002,40.327255 124.362923,39.994984 121.766510,39.994881 
M193.364960,61.993546 
	C196.017288,62.399445 196.920334,61.545837 197.126343,58.602139 
	C197.499130,53.275249 196.388077,48.925179 192.078323,45.503983 
	C190.001816,43.855610 188.330734,40.451420 186.259491,40.266369 
	C178.965012,39.614658 171.576721,40.013042 163.477417,40.013042 
	C167.145020,44.389896 170.046204,48.062447 173.171005,51.533699 
	C178.330139,57.264854 182.634964,64.709114 193.364960,61.993546 
z"/>
<path fill="#FFFFFF" opacity="1.000000" stroke="none" 
	d="
M80.943787,163.861389 
	C77.036354,162.924652 79.893257,159.769241 78.902115,157.429504 
	C78.879219,152.977921 78.927185,148.949570 78.903854,144.462921 
	C78.879768,139.644409 78.926971,135.284180 78.903061,130.464233 
	C78.878952,125.644577 78.925957,121.284630 78.902641,116.464905 
	C78.878815,111.313332 78.925308,106.621529 78.903336,101.468399 
	C78.834869,95.760170 78.834869,90.513260 78.834869,84.460556 
	C87.910965,89.509827 96.122086,94.077888 104.985909,98.880180 
	C112.410805,102.779709 119.182991,106.445007 126.112549,110.423050 
	C133.848953,114.787186 141.427994,118.838585 149.253143,123.053085 
	C149.965317,123.792809 150.431351,124.369423 150.572479,125.082489 
	C131.144714,135.802887 112.041855,146.386826 92.603897,157.084503 
	C88.493797,159.419296 84.718788,161.640350 80.943787,163.861389 
z"/>
<path fill="#575757" opacity="1.000000" stroke="none" 
	d="
M40.055382,67.450806 
	C79.695107,67.085075 119.373352,67.062012 159.517517,67.073456 
	C157.848022,68.961334 155.997955,71.444374 153.529587,72.562950 
	C140.347092,78.536743 126.514343,81.769012 112.024994,83.195396 
	C88.145569,85.546181 65.673096,81.409607 44.212872,71.041252 
	C42.675663,70.298561 41.459396,68.891579 40.055382,67.450806 
z"/>
<path fill="#4E4E4E" opacity="1.000000" stroke="none" 
	d="
M125.955177,110.110306 
	C119.182991,106.445007 112.410805,102.779709 105.324051,98.934097 
	C108.140785,97.835960 111.226746,96.341606 114.410522,96.091293 
	C140.459641,94.043304 164.172272,85.758026 185.219162,70.151810 
	C185.962250,69.600807 186.356750,68.579697 186.948563,67.439682 
	C191.002045,67.063789 195.020706,67.025909 199.515045,66.990799 
	C199.990723,66.993568 200.023712,67.045525 200.011154,67.503746 
	C199.987549,71.980263 199.976501,75.998558 199.613464,80.047844 
	C196.980148,81.407883 194.610931,82.607483 192.431610,84.086815 
	C177.276001,94.374474 160.617310,101.063995 142.843674,105.241646 
	C137.147415,106.580551 131.580994,108.471779 125.955177,110.110306 
z"/>
<path fill="#FEFEFE" opacity="1.000000" stroke="none" 
	d="
M157.504211,13.005060 
	C151.997147,20.145712 146.043457,27.302832 140.007812,34.390171 
	C139.567429,34.907303 138.534927,35.127129 137.775024,35.132992 
	C130.679459,35.187733 123.583313,35.165424 115.905746,35.165424 
	C117.207222,33.350937 118.125359,32.070881 119.480469,30.393074 
	C124.642250,24.337029 129.367065,18.678734 134.091873,13.020438 
	C141.740402,13.015083 149.388931,13.009727 157.504211,13.005060 
z"/>
<path fill="#FEFEFE" opacity="1.000000" stroke="none" 
	d="
M92.581673,33.849068 
	C91.573166,34.290295 90.570435,35.097836 89.555222,35.113846 
	C82.485336,35.225361 75.412857,35.172756 67.340416,35.172756 
	C71.020546,30.851597 74.037880,27.308691 77.444992,23.281748 
	C80.578705,19.536613 83.322639,16.275518 86.066574,13.014421 
	C93.707222,13.009190 101.347862,13.003959 109.436539,13.355556 
	C104.116936,20.424614 98.349304,27.136841 92.581673,33.849068 
z"/>
<path fill="#FEFEFE" opacity="1.000000" stroke="none" 
	d="
M61.423267,13.022081 
	C55.966099,20.039438 50.098080,27.096968 44.063042,34.008663 
	C43.363907,34.809357 41.742409,35.098919 40.540638,35.117626 
	C33.893204,35.221085 27.243319,35.167152 19.326471,35.167152 
	C24.593704,28.906031 29.297438,23.314737 34.085018,17.376911 
	C42.643009,12.640117 51.784981,12.710324 61.423267,13.022081 
z"/>
<path fill="#2A2A2A" opacity="1.000000" stroke="none" 
	d="
M93.072128,33.891388 
	C98.349304,27.136841 104.116936,20.424614 109.899750,13.365316 
	C117.657570,13.012318 125.400200,13.006389 133.617355,13.010448 
	C129.367065,18.678734 124.642250,24.337029 119.581177,30.046833 
	C116.107239,31.023695 113.023537,32.366520 109.819771,32.780731 
	C104.440933,33.476154 98.985680,33.580605 93.072128,33.891388 
z"/>
<path fill="#494949" opacity="1.000000" stroke="none" 
	d="
M199.975204,66.967003 
	C199.642914,58.911213 199.996658,50.775883 198.749344,42.893921 
	C198.039856,38.410553 194.712753,34.341427 192.235260,30.104343 
	C191.906082,30.122927 191.887650,30.184458 191.947586,29.792664 
	C190.909546,28.292156 189.811554,27.183445 188.415924,25.938122 
	C185.402649,23.504353 182.687042,21.207193 179.860474,18.678905 
	C179.435577,18.322649 179.121613,18.197523 178.847488,18.069868 
	C178.887314,18.067339 178.847000,18.136227 178.847000,18.136227 
	C178.892944,17.931051 178.938904,17.725878 179.001312,17.204865 
	C179.549881,15.983662 180.081985,15.078298 180.923096,14.031576 
	C192.041260,19.101616 198.928604,27.759932 200.784698,39.387161 
	C202.179688,48.125965 201.624130,57.176144 201.597748,66.547028 
	C200.846970,67.019409 200.435333,67.032471 200.023712,67.045525 
	C200.023712,67.045525 199.990723,66.993568 199.975204,66.967003 
z"/>
<path fill="#2A2A2A" opacity="1.000000" stroke="none" 
	d="
M85.601562,13.014247 
	C83.322639,16.275518 80.578705,19.536613 77.541962,22.945993 
	C76.165161,20.030294 75.081161,16.966311 73.993469,13.488459 
	C77.705368,13.054419 81.420959,13.034245 85.601562,13.014247 
z"/>
<path fill="#1E1E1E" opacity="1.000000" stroke="none" 
	d="
M108.974503,192.967743 
	C88.508400,192.977936 68.041412,193.101822 47.576633,192.941956 
	C39.475483,192.878662 31.952593,190.447006 25.398638,185.055908 
	C27.727762,184.671341 29.997774,184.693893 32.187538,185.124496 
	C38.294865,186.325546 44.332127,188.561249 50.463661,188.821960 
	C63.923481,189.394318 77.424362,189.001007 90.908485,189.001785 
	C95.318588,189.002045 99.728683,189.001831 104.138786,189.001831 
	C104.328781,188.578979 104.518768,188.156128 104.708755,187.733292 
	C101.816483,185.486847 98.924210,183.240402 95.886703,180.705048 
	C94.490738,178.944580 93.239990,177.473038 92.374115,175.834900 
	C94.718613,175.445541 96.673477,175.094528 98.638687,175.021286 
	C109.584023,174.613373 120.613556,174.981064 131.458176,173.730087 
	C145.052795,172.161896 158.556183,169.577347 171.977463,166.836517 
	C177.809998,165.645416 183.339691,162.971390 189.305420,161.121475 
	C192.705429,163.824875 195.806946,166.377716 198.908447,168.930557 
	C196.175476,172.935150 193.442505,176.939758 190.132553,180.713348 
	C187.105850,181.143661 184.583511,181.612137 182.219727,182.501816 
	C174.516937,185.401016 167.159866,189.189697 158.527939,189.061279 
	C143.204086,188.833267 127.874390,188.990707 112.547165,189.010162 
	C110.819641,189.012360 109.092308,189.164536 106.786804,189.274826 
	C107.812836,191.006790 108.393669,191.987274 108.974503,192.967743 
z"/>
<path fill="#303030" opacity="1.000000" stroke="none" 
	d="
M91.989250,176.001495 
	C93.239990,177.473038 94.490738,178.944580 95.414505,180.707367 
	C72.456818,181.485519 50.239174,178.441498 28.264202,173.247925 
	C23.780386,172.188232 19.230198,171.139694 14.946460,174.027451 
	C13.949318,171.955063 12.952175,169.882690 11.925949,167.440842 
	C12.280614,164.679245 12.664361,162.287109 13.134045,159.359283 
	C14.148115,159.359283 15.931672,159.082794 17.601490,159.401749 
	C35.747467,162.867844 53.854565,166.542740 72.027702,169.856674 
	C75.364365,170.465149 78.949402,169.711578 83.045654,169.341461 
	C86.444099,171.397980 89.216675,173.699738 91.989250,176.001495 
z"/>
<path fill="#2A2A2A" opacity="1.000000" stroke="none" 
	d="
M14.996481,174.376038 
	C19.230198,171.139694 23.780386,172.188232 28.264202,173.247925 
	C50.239174,178.441498 72.456818,181.485519 95.559723,180.996307 
	C98.924210,183.240402 101.816483,185.486847 104.708755,187.733292 
	C104.518768,188.156128 104.328781,188.578979 104.138786,189.001831 
	C99.728683,189.001831 95.318588,189.002045 90.908485,189.001785 
	C77.424362,189.001007 63.923481,189.394318 50.463661,188.821960 
	C44.332127,188.561249 38.294865,186.325546 32.187538,185.124496 
	C29.997774,184.693893 27.727762,184.671341 25.238083,184.751160 
	C21.670027,181.601410 18.358265,178.163010 14.996481,174.376038 
z"/>
<path fill="#161616" opacity="1.000000" stroke="none" 
	d="
M109.445740,192.979050 
	C108.393669,191.987274 107.812836,191.006790 106.786804,189.274826 
	C109.092308,189.164536 110.819641,189.012360 112.547165,189.010162 
	C127.874390,188.990707 143.204086,188.833267 158.527939,189.061279 
	C167.159866,189.189697 174.516937,185.401016 182.219727,182.501816 
	C184.583511,181.612137 187.105850,181.143661 189.786804,180.762665 
	C183.842499,189.460678 174.799835,192.568878 165.104843,192.844574 
	C146.722366,193.367325 128.314377,192.992386 109.445740,192.979050 
z"/>
<path fill="#363636" opacity="1.000000" stroke="none" 
	d="
M198.980469,168.556503 
	C195.806946,166.377716 192.705429,163.824875 189.159225,160.825180 
	C185.136963,156.589813 181.559357,152.801315 178.359131,148.966919 
	C185.824738,146.613831 192.912979,144.306610 200.002121,142.369263 
	C200.351257,143.839417 200.699493,144.939697 201.047729,146.039978 
	C201.037750,150.907562 201.240631,155.788742 200.930817,160.637177 
	C200.768219,163.181885 199.707565,165.669205 198.980469,168.556503 
z"/>
<path fill="#535353" opacity="1.000000" stroke="none" 
	d="
M201.874237,94.991898 
	C201.894836,104.341705 201.915436,113.691505 201.585205,123.515099 
	C200.825653,123.989677 200.416916,123.990479 200.006348,123.743683 
	C200.004517,123.496094 199.998169,123.000732 200.002136,122.532166 
	C199.997574,115.380302 199.989044,108.697014 199.986252,101.575317 
	C199.994873,99.091171 199.997742,97.045433 200.313065,95.000633 
	C201.041763,94.998344 201.457993,94.995125 201.874237,94.991898 
z"/>
<path fill="#575757" opacity="1.000000" stroke="none" 
	d="
M201.925476,94.526184 
	C201.457993,94.995125 201.041763,94.998344 200.311966,94.534569 
	C199.987427,89.383995 199.976456,84.700424 199.965469,80.016853 
	C199.976501,75.998558 199.987549,71.980263 200.011154,67.503746 
	C200.435333,67.032471 200.846970,67.019409 201.567017,67.016312 
	C201.909195,76.037674 201.942947,85.049072 201.925476,94.526184 
z"/>
<path fill="#474747" opacity="1.000000" stroke="none" 
	d="
M200.008194,123.991272 
	C200.416916,123.990479 200.825653,123.989677 201.539825,123.979782 
	C201.782608,131.132767 201.719955,138.294846 201.352509,145.748444 
	C200.699493,144.939697 200.351257,143.839417 200.003571,141.901398 
	C200.005478,135.372864 200.006836,129.682068 200.008194,123.991272 
z"/>
<path fill="#252525" opacity="1.000000" stroke="none" 
	d="
M177.981766,149.012817 
	C181.559357,152.801315 185.136963,156.589813 188.860748,160.674606 
	C183.339691,162.971390 177.809998,165.645416 171.977463,166.836517 
	C158.556183,169.577347 145.052795,172.161896 131.458176,173.730087 
	C120.613556,174.981064 109.584023,174.613373 98.638687,175.021286 
	C96.673477,175.094528 94.718613,175.445541 92.374115,175.834900 
	C89.216675,173.699738 86.444099,171.397980 83.337524,169.045929 
	C82.326317,167.528946 81.649101,166.062256 80.957832,164.228470 
	C84.718788,161.640350 88.493797,159.419296 92.990799,157.254410 
	C95.504028,157.540344 97.303261,158.014832 99.085091,157.956650 
	C106.037537,157.729553 113.018532,157.657043 119.925957,156.929459 
	C132.064697,155.650818 144.169205,154.020782 156.264389,152.365234 
	C163.205383,151.415176 170.099854,150.125305 177.256805,148.994553 
	C177.498352,149.000702 177.981766,149.012817 177.981766,149.012817 
z"/>
<path fill="#FEFEFE" opacity="1.000000" stroke="none" 
	d="
M21.765228,40.002331 
	C24.845762,40.002007 27.567263,40.371094 30.153225,39.935505 
	C39.431648,38.372620 46.168724,41.588779 51.270214,49.521324 
	C53.975849,53.728443 57.797443,57.217884 61.930759,61.968620 
	C53.419094,61.968620 45.894806,62.171921 38.400887,61.785812 
	C37.011715,61.714233 35.684341,59.320103 34.432533,57.905785 
	C29.750196,52.615578 25.092167,47.303185 20.519258,41.919071 
	C20.319265,41.683601 21.047934,40.659389 21.765228,40.002331 
z"/>
<path fill="#FEFEFE" opacity="1.000000" stroke="none" 
	d="
M91.722824,40.602692 
	C97.781487,47.763313 103.642372,54.563423 110.043312,61.990143 
	C101.946144,61.990143 94.416725,62.016644 86.888298,61.942196 
	C86.253738,61.935921 85.473152,61.385960 85.018082,60.863953 
	C79.261589,54.260643 73.552422,47.616085 67.193100,40.242180 
	C75.873573,40.242180 83.699303,40.242180 91.722824,40.602692 
z"/>
<path fill="#FEFEFE" opacity="1.000000" stroke="none" 
	d="
M122.233131,39.994919 
	C124.362923,39.994984 126.108002,40.327255 127.675888,39.940739 
	C137.346252,37.556797 142.813599,43.331657 148.001999,49.994808 
	C151.009293,53.856903 154.330963,57.474201 158.160965,61.963284 
	C150.039627,61.963284 142.540512,61.997375 135.042969,61.904457 
	C134.377625,61.896214 133.594193,61.173729 133.082352,60.592201 
	C127.340141,54.068142 121.640472,47.506630 115.092224,39.994881 
	C118.020309,39.994881 119.893410,39.994881 122.233131,39.994919 
z"/>
<path fill="#FEFEFE" opacity="1.000000" stroke="none" 
	d="
M192.889435,61.993572 
	C182.634964,64.709114 178.330139,57.264854 173.171005,51.533699 
	C170.046204,48.062447 167.145020,44.389896 163.477417,40.013042 
	C171.576721,40.013042 178.965012,39.614658 186.259491,40.266369 
	C188.330734,40.451420 190.001816,43.855610 192.078323,45.503983 
	C196.388077,48.925179 197.499130,53.275249 197.126343,58.602139 
	C196.920334,61.545837 196.017288,62.399445 192.889435,61.993572 
z"/>
<path fill="#FEFEFE" opacity="1.000000" stroke="none" 
	d="
M179.971436,18.910040 
	C182.687042,21.207193 185.402649,23.504353 188.555237,26.240061 
	C189.957367,27.847225 190.922516,29.015839 191.887665,30.184456 
	C191.887650,30.184458 191.906082,30.122927 191.878418,30.139282 
	C189.501312,34.431137 185.903503,35.617298 181.137939,35.258465 
	C175.675629,34.847164 170.158554,35.163109 163.694794,35.163109 
	C168.832932,29.197426 173.516388,23.759651 178.523422,18.229050 
	C178.847000,18.136227 178.887314,18.067339 178.959747,18.315144 
	C179.345276,18.678646 179.658356,18.794346 179.971436,18.910040 
z"/>
<path fill="#2B2B2B" opacity="1.000000" stroke="none" 
	d="
M177.015274,148.988403 
	C170.099854,150.125305 163.205383,151.415176 156.264389,152.365234 
	C144.169205,154.020782 132.064697,155.650818 119.925957,156.929459 
	C113.018532,157.657043 106.037537,157.729553 99.085091,157.956650 
	C97.303261,158.014832 95.504028,157.540344 93.325890,157.140686 
	C112.041855,146.386826 131.144714,135.802887 150.886871,125.221718 
	C155.681915,128.822632 159.837677,132.420776 164.139893,136.316223 
	C168.529327,140.738510 172.772293,144.863464 177.015274,148.988403 
z"/>
<path fill="#494949" opacity="1.000000" stroke="none" 
	d="
M199.613464,80.047844 
	C199.976456,84.700424 199.987427,89.383995 199.999512,94.533630 
	C199.997742,97.045433 199.994873,99.091171 199.627838,101.608414 
	C184.173248,109.664391 168.734207,116.342102 152.279663,120.462509 
	C151.062485,120.767296 150.092117,122.057762 149.007019,122.889984 
	C141.427994,118.838585 133.848953,114.787186 126.112549,110.423050 
	C131.580994,108.471779 137.147415,106.580551 142.843674,105.241646 
	C160.617310,101.063995 177.276001,94.374474 192.431610,84.086815 
	C194.610931,82.607483 196.980148,81.407883 199.613464,80.047844 
z"/>
<path fill="#424242" opacity="1.000000" stroke="none" 
	d="
M149.253143,123.053085 
	C150.092117,122.057762 151.062485,120.767296 152.279663,120.462509 
	C168.734207,116.342102 184.173248,109.664391 199.622101,102.046814 
	C199.989044,108.697014 199.997574,115.380302 199.607208,122.532600 
	C197.775848,123.347870 196.290588,123.552483 194.919617,124.063629 
	C186.685547,127.133522 178.472153,130.259232 170.264984,133.400558 
	C168.150223,134.210007 166.082687,135.142776 163.993454,136.018906 
	C159.837677,132.420776 155.681915,128.822632 151.211761,125.085266 
	C150.431351,124.369423 149.965317,123.792809 149.253143,123.053085 
z"/>
<path fill="#252525" opacity="1.000000" stroke="none" 
	d="
M191.947601,29.792660 
	C190.922516,29.015839 189.957367,27.847225 188.852905,26.376673 
	C189.811554,27.183445 190.909546,28.292156 191.947601,29.792660 
z"/>
<path fill="#252525" opacity="1.000000" stroke="none" 
	d="
M179.860474,18.678909 
	C179.658356,18.794346 179.345276,18.678646 178.919922,18.317673 
	C179.121613,18.197523 179.435577,18.322649 179.860474,18.678909 
z"/>
<path fill="#3D3D3D" opacity="1.000000" stroke="none" 
	d="
M164.139893,136.316223 
	C166.082687,135.142776 168.150223,134.210007 170.264984,133.400558 
	C178.472153,130.259232 186.685547,127.133522 194.919617,124.063629 
	C196.290588,123.552483 197.775848,123.347870 199.603241,123.001167 
	C199.998169,123.000732 200.004517,123.496094 200.006348,123.743683 
	C200.006836,129.682068 200.005478,135.372864 200.002670,141.531525 
	C192.912979,144.306610 185.824738,146.613831 178.359131,148.966919 
	C177.981766,149.012817 177.498352,149.000702 177.256805,148.994568 
	C172.772293,144.863464 168.529327,140.738510 164.139893,136.316223 
z"/>
</svg>